<svg xmlns="http://www.w3.org/2000/svg" viewBox="0 0 164.65 123.584"><defs><style>.cls-1{fill:#fee;stroke:transparent}.cls-2{filter:url(#Union_1)}</style><filter id="Union_1" x="0" y="0" width="164.65" height="123.584" filterUnits="userSpaceOnUse"><feOffset dx="-6"/><feGaussianBlur stdDeviation="7" result="blur"/><feFlood flood-color="#21d4fd"/><feComposite operator="in" in2="blur"/><feComposite in="SourceGraphic"/></filter></defs><g class="cls-2"><path id="Union_1-2" data-name="Union 1" class="cls-1" d="M-1826.465-122.61a19.281 19.281 0 0 1-7.813-.391 19.154 19.154 0 0 1-6.3-3.027 21.282 21.282 0 0 1-4.784-4.883 28.616 28.616 0 0 1-3.271-6.054 31.976 31.976 0 0 1 .488-12.061 39.273 39.273 0 0 1 4-10.01 58.8 58.8 0 0 1 6.006-8.593q3.37-4 6.494-7.715a1.139 1.139 0 0 0 1.123 0 3 3 0 0 0 .781-.781 10.177 10.177 0 0 1 .781-.977 2.38 2.38 0 0 1 1.025-.683 4.384 4.384 0 0 1 1.025-1.465 15.752 15.752 0 0 1 1.367-1.122 15.775 15.775 0 0 0 1.368-1.123 5.8 5.8 0 0 0 1.122-1.465 4.72 4.72 0 0 0 1.709-.683 11.029 11.029 0 0 0 1.367-1.075 13.781 13.781 0 0 1 1.318-1.075 5.637 5.637 0 0 1 1.661-.781v-1.269a8.72 8.72 0 0 0 3.125-2.148q.976-1.172 2.344-3.028 1.075-.1 1.709-.1a15.793 15.793 0 0 0 2-.2 10.422 10.422 0 0 1 1.661-2.441 15.018 15.018 0 0 1 2.246-1.758 8.083 8.083 0 0 0 3.125.927 4.831 4.831 0 0 1 3.028 1.514 2.947 2.947 0 0 0 .683 1.807 10.884 10.884 0 0 0 1.27 1.172q.683.537 1.367 1.123l.055.049a10.724 10.724 0 0 1 1.476-1.509 22.269 22.269 0 0 1 4.834-3.076 32.184 32.184 0 0 1 5.713-2.05q3.028-.782 5.859-1.367.587.194.587 0c0-.131.162-.066.488.2q3.515-1.075 8.105-2.1a35.433 35.433 0 0 1 9.766-.733 3.677 3.677 0 0 1 1.66-.439q.977-.049 2.051-.049t2.051-.049a4.824 4.824 0 0 0 1.66-.342 2.645 2.645 0 0 0 1.758.831 5.543 5.543 0 0 1 2.442 1.025q.39.1 0-.342t.1-.635a4.279 4.279 0 0 1 2.246.586 12.2 12.2 0 0 1 1.807 1.318q.83.732 1.562 1.318a2.52 2.52 0 0 0 1.611.586 12.328 12.328 0 0 0 2.1 2q1.22.927 2.344 1.9a9.574 9.574 0 0 1 1.856 2.148 4.877 4.877 0 0 1 .733 2.637q-.1.586.391.683a.894.894 0 0 1 .683.586 13.837 13.837 0 0 1-1.123 6.251 21.362 21.362 0 0 1-3.076 4.834 47.622 47.622 0 0 1-3.955 4.151 36.2 36.2 0 0 0-3.857 4.2 17.456 17.456 0 0 0 2.686 2.686q1.513 1.222 3.076 2.393a36.514 36.514 0 0 1 2.978 2.49 13.177 13.177 0 0 1 2.393 2.978 1.672 1.672 0 0 0 1.269.781 14.984 14.984 0 0 0 .831 2.393q.536 1.22 1.025 2.344a7.077 7.077 0 0 1 .586 2 1.7 1.7 0 0 1-.489 1.465 1.525 1.525 0 0 1 .781 1.22 4.355 4.355 0 0 1 0 1.318q-2.148 2.637-2.929 3.711t-1.172 1.562a10.565 10.565 0 0 1-.781.879q-.39.39-1.758 1.562a96.614 96.614 0 0 1-10.791 5.615 44.366 44.366 0 0 1-11.67 3.37 3.559 3.559 0 0 1-1.416 1.122 11.278 11.278 0 0 1-2.1.733q-1.172.293-2.49.489t-2.392.391a.761.761 0 0 1-.537-.634.761.761 0 0 0-.537-.635q-.1 1.172-1.025 1.221a6.115 6.115 0 0 1-2.3-.44 15.945 15.945 0 0 1-2.832-1.367q-1.465-.879-2.539-1.66a16.46 16.46 0 0 1-1.22 1.855 4.467 4.467 0 0 1-1.514 1.367q-1.367-.194-2-.292a1.4 1.4 0 0 0-1.221.488 3.856 3.856 0 0 1-1.172-.83l-.781-.879a5.088 5.088 0 0 0-.878-.781 5.286 5.286 0 0 0-1.465-.635 2.07 2.07 0 0 0-.293-1.514 2.011 2.011 0 0 0-1.367-1.22 1.127 1.127 0 0 0 .169-.493 13.1 13.1 0 0 1-1.309.78 23 23 0 0 0-4.3 2.881 10.3 10.3 0 0 1-2.93 1.123q-1.562.342-3.222.732a21.756 21.756 0 0 1-3.028 1.514q-1.758.733-3.614 1.319a30.882 30.882 0 0 1-3.711.928 10.68 10.68 0 0 1-3.32.147 35.285 35.285 0 0 1-6.836 1.758 16.1 16.1 0 0 1-2.344.163 25.9 25.9 0 0 1-5.463-.645zm1.269-35.546a21.1 21.1 0 0 1-2.3 4.053q-1.317 1.806-2.587 3.662a24.57 24.57 0 0 0-2.2 3.955 13.255 13.255 0 0 0-1.026 4.932 8.688 8.688 0 0 0 4.639 2 25.893 25.893 0 0 0 5.518.1q2.832-.244 5.664-.733a30.177 30.177 0 0 1 5.079-.488q0-.879.781-.879a19.741 19.741 0 0 0 7.628-2.296q3.515-1.9 7.324-3.857a7.263 7.263 0 0 1 1.27-2.051 4.077 4.077 0 0 0 .878-2.539 6.429 6.429 0 0 1-.635-1.464 7.834 7.834 0 0 1-.147-1.758 43.122 43.122 0 0 1-4.394-7.666 55.43 55.43 0 0 0-4.3-7.861 2.573 2.573 0 0 1-.781.977q-.586.489-1.269-.2a2.157 2.157 0 0 1-.879 1.319 2.569 2.569 0 0 1-1.319.342 3.916 3.916 0 0 1-1.464-.293 4.854 4.854 0 0 1-1.318-.781q-3.418 2.734-6.787 5.273a34.029 34.029 0 0 0-6.1 5.957c-.326.2-.521.261-.586.2a.168.168 0 0 0-.119-.032 2.062 2.062 0 0 0-.574.128zm70.623-1.557a38.533 38.533 0 0 0-5.322 1.221 35.9 35.9 0 0 1-5.079 1.172q-1.269 3.32-2.636 7.324t-2.637 7.812a36.05 36.05 0 0 0 6.445-1.464q2.931-.977 5.665-2.2t5.371-2.441q2.637-1.222 5.468-2.3a3.112 3.112 0 0 1 1.27-1.856q.976-.683 1.953-1.318a7.908 7.908 0 0 0 1.66-1.416 2.564 2.564 0 0 0 .489-2.148 19.354 19.354 0 0 0-6.787-2.442 22.5 22.5 0 0 0-2.831-.184 19.423 19.423 0 0 0-3.029.24zm-38.4-21.392q0 .78.586.83t.683.733a2.141 2.141 0 0 1-.292 1.464 92.355 92.355 0 0 1 4.98 9.619 81.844 81.844 0 0 0 5.079 9.619q-.031.218-.049.434.395-1.267.652-2.479.343-1.611.733-3.467a27.97 27.97 0 0 1 1.563-4.687 7.948 7.948 0 0 1 .391-3.125q.489-1.368 1.026-2.686a15.4 15.4 0 0 0 .83-2.784 8.761 8.761 0 0 0-.1-3.418 3.313 3.313 0 0 0-2.392 1.173 5.388 5.388 0 0 0-.928 2.636 3.078 3.078 0 0 1-2.245.733 6.424 6.424 0 0 0-2.442.342 17.859 17.859 0 0 1-6.787-4.688q-.3-.333-.579-.679a2.662 2.662 0 0 1-.704.43zm32.293-5.707a31.8 31.8 0 0 0-9.864 3.711 31.088 31.088 0 0 0 4.053 2.93 8.223 8.223 0 0 1 3.174 3.418 30.632 30.632 0 0 0 8.2-4.737 43.647 43.647 0 0 0 6.347-6.4q-.808-.026-1.613-.026a48.464 48.464 0 0 0-10.292 1.104z" transform="translate(1876.48 224.04)"/></g></svg>