<svg baseProfile="tiny" xmlns="http://www.w3.org/2000/svg" viewBox="0 0 140 28"><path fill="#FFF" d="M18.4 8.1C18.4 2.7 14.9.2 7.7.2c-3 0-5.3.2-6.7.3 0 0-1 .1-1 .8v25.2s.6.6 1.3.6h2.8s.9.1.9-.6V17h2.8s.7-.1 1 .5l4.5 9.2s.3.3 1 .3h4.5s.7.3.4-.3l-5.5-10.9-.3-.6.7-.2c2.2-.7 4.3-3.3 4.3-6.9m-5.5 0c0 2.6-1.9 3.9-4.8 3.9H5.8s-.8.6-.8-.1V5.2s0-.7.4-.7c.3 0 1.3-.2 2.7-.2 3 0 4.8.8 4.8 3.8M139.1 27s.9.1.9-.6V1s0-1-.7-1h-3.1s-1.2.3-1.2 1v17.9s-.2.6-.3.6l-.2-.6c-2.6-5.8-6.3-12.4-9.5-18.1 0 0-1.3-.7-2-.7h-3.8s-1.1.3-1.1 1v25.4s.4.6 1.1.6h2.9s2 .1 2-.6v-9.6-8.4s-.1-.5 0-.5c0 0-.1 0 0 0 0 0-.2 0 .1.6 1.8 3.8 4.6 8.7 9.7 18.1 0 0 1.6.3 2.3.3h2.9zM103.1 27.3c7.4 0 9.9-3.4 9.9-11.4V1s-.3-1-1-1h-3.3s-.7.3-.7 1v16c0 4.4-1.6 5.7-5 5.7-3.3 0-5-1.5-5-5.7V1s.2-1-.5-1h-3S93 .3 93 1v15.7c0 7.7 3.4 10.6 10.1 10.6zM60.6 0s-.7.1-1 .8l-2.5 5.6L55 12s0 .4-.3-.2l-2-5.1-2.4-6s-.3-.7-1-.7h-3.8s-1.7.1-1.4.8l7.6 15.6s.3.7.3 1.4v8.6s.4.6 1.1.6h3.8s1.2.1 1.2-.6v-8.6s-.1-.7.2-1.3L66 .8s-.8-.8-1.5-.8h-3.9zM84.1 16s-1.1.3-1.1 1v4.5s.2.7-.1.8c-.3.1-1.2.4-2.4.4-5.1 0-8.6-3-8.6-9 0-6.2 3.8-9.1 8.9-9.1 2.7 0 5.3.4 7 1.1l.2-3.8s0-.7-.6-1c-.9-.4-4-.9-7-.9-8.9 0-13.7 5.7-13.7 14.1 0 8.1 4.4 13.2 13.5 13.2 3.2 0 7.7-1.8 7.7-2.5V17s-.1-1-.8-1h-3z"/><g fill="#FFF"><path d="M30.1 16l1.3-5.9L33 3h.1s.1 1.4.3 2l1.4 5.8 1.4 5.2h5.5L36.9.7S36.7 0 36 0h-5.6s-.7 0-.9.7L24.9 16h5.2zM44.9 25.9L43.5 21h-5.7l1.3 5.3.1.3s.1.3.8.3h4.5c-.1.1.6-.3.4-1zM23 21l-1.4 4.9s-.2 1.1.5 1.1h4.3s.7-.4.9-1.1l1.2-4.9H23z"/></g></svg>