<svg xmlns="http://www.w3.org/2000/svg" viewBox="0 0 106 95.004"><defs><style>.cls-1{fill:#fee}.cls-2{filter:url(#if_social_54_492996)}</style><filter id="if_social_54_492996" x="0" y="0" width="106" height="95.004" filterUnits="userSpaceOnUse"><feOffset dx="-6"/><feGaussianBlur stdDeviation="7" result="blur"/><feFlood flood-color="#21d4fd"/><feComposite operator="in" in2="blur"/><feComposite in="SourceGraphic"/></filter></defs><g class="cls-2"><path id="if_social_54_492996-2" data-name="if_social_54_492996" class="cls-1" d="M62.468 16.868a8.477 8.477 0 0 0 .957-2.328c.1-.855.1-1.853-.335-2.233s-2.153.238-3.54.665a40.178 40.178 0 0 1-4.162.855s-1.722-5.083-4.5-7.08-6.455-2.047-9.564-1.33-6.937 2.71-8.707 4.8-3.3 6.27-3.827 7.933-1.58 4.56-2.776 4.8-3.445-.618-5.358-1.805a96.871 96.871 0 0 1-9.377-7.506C8.792 11.357 5.25 7.414 4.1 7.652s-2.487 4.37-2.487 7.316 2.63 5.8 2.63 5.8a11.419 11.419 0 0 0 .575 8.55 9.648 9.648 0 0 0 3.2 3.327 8.608 8.608 0 0 0 .335 4.372c.478 1.425 2.966 3.23 2.966 3.23A11.775 11.775 0 0 1 7.5 42.1c-2.344.665-6.793-.048-7.272.048S.18 48.181.18 49.038a2.782 2.782 0 0 0 1.387 2.09c.765.57 6.937 3.657 15.6 5.89a30.5 30.5 0 0 0 20.62-1.948c5.167-2.233 10.717-9.074 14.305-14.585s5.98-13.444 5.98-13.444a28.5 28.5 0 0 0 3.246-2.141A7.268 7.268 0 0 0 64 19.58a3.985 3.985 0 0 0-1.53-2.71zm-4.306 3.183c.574 0 3.014-1.377 3.3-1.14s-.717 2.09-2.487 3.137-3.11 1.568-3.445 1.473-1.555-2.47-1.77-2.435-.79.5-.646.82 1.543 2.173 1.4 2.46-.216.427-.432.248-1.543-2.993-1.9-3.064-.86.712-.646 1.068 1.973 2.637 1.938 2.993-.43 2-.574 1.747a39.022 39.022 0 0 0-2.548-4.24 1.68 1.68 0 0 0-.61 1.247c.108.285 2.655 3.99 2.655 4.31s-.753 1.925-1.005 1.64-2.476-5.024-2.69-5.024-.826.784-.79 1 2.87 4.953 2.942 5.31-.61 2.386-.86 2.244-2.55-5.88-2.836-5.915-.718.82-.61 1.176 2.8 5.452 2.835 5.88-.43 1.175-.573 1.068-3.05-7.268-3.3-7.232-.683.748-.432 1.568 3.193 6.164 3.23 6.592-.72 1.425-.826 1.247-3.196-6.986-3.482-6.914a1.539 1.539 0 0 0-.432 1.568c.25.43 3.41 5.95 3.41 6.13s-.826 1.46-1.042 1.354-2.87-6.414-3.158-6.378a1.026 1.026 0 0 0-.5 1.39c.323.713 3.122 5.452 3.014 5.772s-.86 1.39-1.005 1.14-2.978-6.7-3.3-6.7-1.113.714-.826 1.284 3.48 6.2 3.336 6.342-1.256 1.6-1.435 1.5-3.228-6.626-3.55-6.52-.79.607-.54 1.07 3.41 5.986 3.338 6.164-.86.89-1.076.64-3.158-6.092-3.48-6.092-1.006.926-.79 1.283 3.66 5.665 3.516 5.915-1.22 1.176-1.363 1-2.8-5.558-3.337-5.523-.933.855-.682 1.14 2.942 4.81 2.942 4.81-1.292.784-1.507.534-2.4-5.2-2.618-5.2-1.148.57-.754 1.14 2.583 4.347 2.368 4.525-.9.5-1.112.25-2.44-5.2-2.655-5.2-1.077.355-.862.712 2.512 4.988 2.4 5.06-1.543.5-1.722.32-2.117-4.31-2.44-4.31a.725.725 0 0 0-.574.748c.072.25 2.117 3.813 2.01 3.884a5.157 5.157 0 0 1-1.652.178c-.144-.107-1.973-4.383-2.26-4.454s-.934.5-.79.89 1.794 3.564 1.615 3.635-1.4.143-1.58-.107-1.65-3.706-1.973-3.777-.9.106-.682.64 1.9 3.563 1.65 3.563a9.11 9.11 0 0 1-1.757-.107c-.144-.107-1.615-3.634-1.866-3.706s-1.076-.143-.933.32 1.72 3.172 1.434 3.172a5.827 5.827 0 0 1-2.01-.534c-.25-.25-1.578-3.492-1.865-3.527s-.9.286-.826.714 1.364 2.744 1.04 2.672-1.793-.32-1.83-.5a22.529 22.529 0 0 0-1.72-3.313c-.25-.143-1.113.036-.9.428a12.374 12.374 0 0 1 1.005 2.388 35.908 35.908 0 0 1-6.314-2.423c-2.8-1.425-5.31-3.634-4.988-3.706s3.947.213 6.423-.714 4.953-1.888 5.1-2.174-.287-.926-.4-.962-3.12-.962-3.767-3.136-.144-4.525-.538-4.81a7 7 0 0 1-3.41-4.24c-1.006-3.1.11-7.3-.107-7.59s-.562-.866-.91-.77-1.53-2.33-1.578-4.61.957-5.32 1.2-5.32 6.65 6.176 10.047 9.027S21.8 24 24.145 24.38s3.3.475 4.4-1.758 2.3-7.7 3.972-10.215a14.679 14.679 0 0 1 9.568-6.08c4.448-.712 7.8.522 9.568 2.992s1.866 5.7 2.3 5.986 2.343.19 4.64-.618a20.412 20.412 0 0 1 3.253-1 5.53 5.53 0 0 1-2.01 2.708c-1.482 1.235-2.535 2.09-2.535 2.66s.29 1 .864 1zM6.11 15.883c-.682-.534-.395-1.817-.215-2.744s-1.292-.713-1.543.32a3.422 3.422 0 0 0 .86 3.172c.826.713 1.6.67 1.83.5.288-.214-.25-.713-.932-1.248zm20.13 10.155c-.538-.07-1.866.64-3.265-.07s-2.763-2.388-3.375-2.174c-.428.15-.86.713.18 1.675a7.5 7.5 0 0 0 4.556 1.782c1.579 0 2.44-1.14 1.9-1.213zm9.83-12.577c-.358-.107-1.865.89-2.582 2.138s-1.794 3.634-.97 4.1c.554.31.826-.07 1.257-1.425a13.17 13.17 0 0 1 1.722-3.49c.467-.572.933-1.214.574-1.32z" transform="translate(27 16)"/></g></svg>