<svg xmlns="http://www.w3.org/2000/svg" viewBox="0 0 106.001 106"><defs><style>.cls-1{fill:#fee}.cls-2{filter:url(#if_social_42_492988)}</style><filter id="if_social_42_492988" x="0" y="0" width="106.001" height="106" filterUnits="userSpaceOnUse"><feOffset dx="-6"/><feGaussianBlur stdDeviation="7" result="blur"/><feFlood flood-color="#21d4fd"/><feComposite operator="in" in2="blur"/><feComposite in="SourceGraphic"/></filter></defs><g class="cls-2"><path id="if_social_42_492988-2" data-name="if_social_42_492988" class="cls-1" d="M63.186 24.408a25.484 25.484 0 0 0-8.014-14.984C52.838 7.316 47.616 2.642 40.288.947s-14.933-.925-19.464.825C15.6 3.788 11.848 7.362 9.284 9.7S.763 19.917.306 24.73s-.732 11.684 1.65 17.732 5.45 8.66 8.976 11.593 9.16 8.66 16.578 9.623 15.16-.23 20.884-3.62 8.426-5.82 12.456-14.847 3.435-13.058 2.336-20.8zm-6.835 3.208c.173.31 3.814 4.5 4.123 4.708s.584.137.653.344-.07 2.1-.447 2.062-3.47-3.918-3.98-4.23-.962.584-.79.79 4.4 4.468 4.43 4.708-.136 1.822-.41 1.72-4.054-4.125-4.4-3.884-.584.962-.48 1.065 4.292 3.575 4.292 3.92-.55 2.3-.79 2.2-3.916-4.57-4.293-4.57-.893.755-.584 1.03 4.4 4.227 4.26 4.536-.276 1.03-.516.825-3.847-3.953-4.122-3.92-.962.688-.756.93 4.292 3.676 4.224 3.95-.756 1.685-1.03 1.616-3.332-4.09-3.64-4.09-1.066 1-.928 1.1 3.778 3.746 3.813 3.987-.79 1.58-.963 1.478-3.263-4.123-3.606-4.02-.926.516-.72.86 3.71 3.917 3.675 4.09-.79 1.614-1.065 1.442-3.778-4.57-4.328-4.468-.79.344-.687.653 4.122 4.158 4.053 4.5-.412 1.03-.824 1-3.538-4.055-3.916-4.055-1.1.585-1.03.757 3.984 3.883 3.916 4.055-.55.86-.72.79-4.432-4.64-4.672-4.64-.962 1.134-.824 1.272 4.19 3.952 4.122 4.193-1.065.79-1.236.687-3.606-4.227-3.95-4.055-.687.72-.618.858 3.4 3.574 3.263 3.746a1.761 1.761 0 0 1-1.1.447c-.275-.068-3.71-3.676-3.984-3.573s-.962 1-.86 1.1a36.394 36.394 0 0 1 3.367 3.093.606.606 0 0 1-.72.344c-.38-.137-3.3-3.437-3.745-3.334a1.006 1.006 0 0 0-.618 1.03c.1.2 2.92 2.647 2.782 2.716s-1.374.756-1.923.48-2.714-2.61-3.127-2.508-.962.653-.79.86S36.363 58 36.053 58.1s-.72.343-1.065.1a26.207 26.207 0 0 0-3.022-2.234c-.275.034-1.03.412-.893.653s1.958 1.51 1.614 1.65a29.393 29.393 0 0 1-11.37-1.72 43.268 43.268 0 0 1-13.224-7.97 20.683 20.683 0 0 1-5.942-9.966 39.082 39.082 0 0 1-.687-11.547c.378-3.78 2.333-7.938 4.5-11.34s7.66-8.282 9.583-9.692a32.86 32.86 0 0 1 6.22-3.4c3.328-1.417 7.42-1.477 11.4-1.442a30.964 30.964 0 0 1 12.777 3.23c3.881 1.958 5.77 3.678 6.045 4.125s0 1.856.342 2.165 3.847 2.784 4.4 3.265a6.526 6.526 0 0 1 1.58 2.268c.31.826.584 1.238.31 1.1s-4.466-4.535-4.878-4.33-.756.55-.412.9 4.569 4.356 4.869 4.527.653-.2.653-.2a31.407 31.407 0 0 1 1.992 6.392c.549 3.162.378 3.61.31 3.505s-3.54-4.055-4.054-3.952a.641.641 0 0 0-.31 1.1c.377.378 3.814 3.643 4.088 3.883a1.071 1.071 0 0 1 .378.79c0 .24-.034 1.547-.172 1.272s-3.916-4.708-4.293-4.6a.787.787 0 0 0-.446 1zm-47.364-1.03c.48.446 1.2.308 4.26.343s7.487-1 12.124-2.44 5.5-2.613 5.53-3.472-1.786-3.5-3.64-5.808a20.868 20.868 0 0 0-6.493-4.81 5.606 5.606 0 0 0-3.675 1.683A53.917 53.917 0 0 0 10.7 21.7c-1.681 3.648-1.8 4.8-1.713 4.885zm9.068-9.28c1.786-2.235 3.71-4.16 4.362-4.16s4.774 4.228 5.84 5.912.858 1.753.686 2.062A23.3 23.3 0 0 1 19.6 24.8c-4.912.79-5.908.894-6.423.447a50 50 0 0 1 4.877-7.94zm10.613-8.25c.618.138 2.026.86 3.778 3.025s3.95 7.356 4.328 7.63 1.546-.55 4.465-2.748a13.17 13.17 0 0 0 4.5-5.43c.377-1 .308-.825-1.96-2.784s-5.735-2.818-9.65-2.649-6.283 1.448-6.424 1.684c-.2.343.345 1.134.963 1.27zm12.194.62c2.44.86 3.3 1.478 3.333 1.89s-2.576 2.956-3.64 4.124-1.306 1.375-1.718 1.168-1.58-5.6-4.74-7.94a19.812 19.812 0 0 1 6.766.758zm10.34 6.46a2.121 2.121 0 0 0-2.508-.96c-.515.17-2.13 2.37-3.538 3.745a38.965 38.965 0 0 1-5.736 3.92 16.571 16.571 0 0 0-2.2 1.064c0 .344 1.236 1 2.37 2.578s1.374 4.5 1.752 4.743 2.748-.687 4.534-1.065a43.139 43.139 0 0 1 6.8-.137c.343 0 1.34.034 1.684-.825a13.145 13.145 0 0 0 .034-5.91c-.481-2.92-2.577-5.948-3.195-7.15zm2.025 12.133c-.24.136-6.045-.31-7.694.17s-3.056 1.17-3.228.963a7.759 7.759 0 0 0-1.236-4.158c-.174-.265 4.362-2.578 6.25-4.95s2.3-2.955 2.61-2.92 2.61 3.918 2.955 6.358.586 4.4.345 4.536zM33.684 34.8c1.168-.31 1.786 0 2.026-1.375s-.412-2.234-1.236-4.365-1.34-2.68-2.026-2.715-1.408.378-2.713 1.168a51.085 51.085 0 0 1-7.11 2.922 47.013 47.013 0 0 1-10.75 1.856c-1.684.034-4.415-.215-4.535.1-.515 1.376.48 4.4 2.336 8.765s4.67 5.018 5.015 5.12 1.03-.377 1.51-.927a34.692 34.692 0 0 1 6.972-6.117 28.434 28.434 0 0 1 10.51-4.432zm-18.547 9c-.447-.1-2.576-2.887-2.026-6.633.042-.294 7.04-1.444 10.063-3.06s8.9-5.224 9.136-5.36 2.506 3.848 2.025 4.4-5.564.928-11.094 4.468-7.66 6.29-8.1 6.186zm34.828-10.446c-1.923.206-6.77 1.314-7.04 1.753-.448.722.514 3.918.96 7.148s.825 3.437 1.306 3.677 1.682-.31 4.224-3.643 3.435-6.53 3.332-7.7-.86-1.443-2.783-1.237zm-2.37 9.21c-.48-.137-1.683-5.464-1.614-5.877.07-.434 4.74-1.168 5.048-.962s-2.955 6.977-3.435 6.84zM37.15 37.34c-.55-.24-2.2.448-3.743 1.41s-8.587 6.942-10.373 9.83-1.267 4.43-1.03 4.6c.893.653 4.362 1.375 8.21.825s8.62-2.338 9.2-2.957.378-2.2-.07-6.186-1.647-7.285-2.2-7.526zm1.134 12.06c-.72 1.237-8.862 4.227-12.16 2.852-.336-.14 1.03-3.265 3.47-5.98s7.076-6.29 7.282-6.186 2.13 8.081 1.408 9.314zM4.934 27.924c-.654.207-1.375 2.338-1.34 6.668s.84 5.664 1.167 5.774c.722.24.963-.516.79-1.237a25.076 25.076 0 0 1-.342-4.744A21.123 21.123 0 0 1 6 28.852c.206-.413-.412-1.134-1.065-.928zm7.693-15.567c.275-.584.1-.894-.343-.894s-3.95 4.64-5.05 6.564-2.2 4.557-1.888 4.743c.584.344.756.412 1.2.275s1.2-2.92 2.026-4.708 3.778-5.4 4.053-5.98zM28.22 24.832a.673.673 0 0 0 .894.516 42.363 42.363 0 0 0 4.843-2.543c.721-.515.72-1 .343-1.03s-6.216 2.62-6.08 3.057zM46.7 13.388a12.2 12.2 0 0 0 2.542-3.952.9.9 0 0 0-1.065-1.136c-.378.07-.412 1-.653 1.993a6.32 6.32 0 0 1-1.477 2.44c-.344.343-.034 1.065.653.653zm12.777 8.076c.275-.378-.653-1.65-1.58-2.37s-2.563-2.293-2.748-2.2a.821.821 0 0 0 .1 1.512 36.953 36.953 0 0 1 3.538 3.127c.241.24.412.31.687-.07zm-.138 3.2c.79.48.926.447.995-.1s-3.825-4.377-4.087-4.3c-.447.138-.72.517-.515.93a23.5 23.5 0 0 0 3.606 3.47z" transform="translate(27 21)"/></g></svg>