<svg xmlns="http://www.w3.org/2000/svg" viewBox="0 0 106.001 106"><defs><style>.cls-1{fill:#fee}.cls-2{filter:url(#if_social_30_492979)}</style><filter id="if_social_30_492979" x="0" y="0" width="106.001" height="106" filterUnits="userSpaceOnUse"><feOffset dx="-6"/><feGaussianBlur stdDeviation="7" result="blur"/><feFlood flood-color="#21d4fd"/><feComposite operator="in" in2="blur"/><feComposite in="SourceGraphic"/></filter></defs><g class="cls-2"><path id="if_social_30_492979-2" data-name="if_social_30_492979" class="cls-1" d="M63.746 31.07c-.32-5.753-.275-11.46-.642-12.61s-6.004-4.88-8.254-5.893-11.738-5.847-14.4-7.32S32.382 0 31.558 0 29.31.83 27.98 1.52s-6.74 4.188-10.5 6.213-8.115 4.833-12.746 6.905S.3 16.943.1 17.814c-.14.6.32 3.452.457 7.64S.1 37.838.01 40.094a7.538 7.538 0 0 0 1.33 4.97c.918 1.38 4.953 3.453 9.263 5.94s11.51 7.5 15.04 10.126 4.356 2.485 5.87 2.853 10.774-5.2 18.11-9.712 13.986-8.56 14.215-9.39.23-8.054-.092-13.81zM62.508 41c-.24-.207-4.608-5.213-4.85-5.006s-.446.725-.343.9 4.643 4.833 4.71 5.144-.205.83-.48.725-4.092-3.9-4.608-3.97-1.17.587-.722.967a52.714 52.714 0 0 1 4.16 3.8c0 .242-.962 1.243-1.237 1.07s-3.645-3.73-4.16-3.73-1.067.483-.792.725 3.92 3.556 3.748 3.832-.93 1.312-1.41.967-3.267-3.724-3.783-3.724-.995.518-.79.76a46.413 46.413 0 0 1 3.37 3.59c0 .276-1 .725-1.27.62s-3.2-3.624-3.61-3.624-1 .345-.793.552 3.44 3.728 3.37 3.867-.825.865-1.032.623-2.786-3.556-3.508-3.556-1 .345-.86.518 3.473 3.383 3.2 3.625-1.032.724-1.34.517-3.234-3.21-3.68-3.28-.964.518-.758.76 3.68 3.038 3.267 3.28-1.582 1.38-1.995 1.14-2.924-3.177-3.543-3.143-1.2.345-.86.725 3.13 2.83 2.89 3.1-.654.794-1 .518-2.82-2.762-3.234-2.8-1.032.31-.825.587 3.406 2.486 3.13 3.038-1.376 1.208-1.582 1-2.958-3.072-3.4-3-.86.344-.55.655 2.992 2.693 2.854 3.038-.86.932-1.032.725-3.473-3.522-3.714-3.42-.86.968-.515 1.21 3.44 2.52 3.13 2.76-1.136 1.07-1.48.864-2.89-2.59-3.233-2.59-.824.588-.343.968a20.218 20.218 0 0 1 2.544 2.244.683.683 0 0 1-.79.414c-.377-.138-2.752-2.21-3.165-2.175s-1.1.518-.86.794 2.75 1.69 2.647 2.036-.722.9-1.135.656-11.9-7.216-15.58-9.426-8.35-5.076-11-6.7-3.923-1.93-4.266-3.38.275-8.044.447-11.7a56.978 56.978 0 0 0-.206-7.6c-.068-.932-.22-2.785-.16-3.222.125-.953 2.11-1.75 5.96-3.544S23.626 5.71 25.644 4.466s4.77-2.9 5.5-2.762 6.878 4.51 11.142 6.26a149.244 149.244 0 0 1 14.535 7.18c1.375.966 2.018 1.52 2.018 1.7s-.32.506.183.83a19.668 19.668 0 0 1 2.8 2.485c.046.23.32 2.21.138 2.117s-2.442-3.027-3.026-3.027-1 .587-.688.932 3.61 3.28 3.783 3.728.413 1.38.172 1.174a29.85 29.85 0 0 0-2.89-2.693c-.24.035-.62.207-.48.794s3.334 3.418 3.4 3.66a7.257 7.257 0 0 1-.07 2.208 31.708 31.708 0 0 0-2.82-3.176c-.207.069-.274.794-.274.794s3.025 3.625 3.163 3.97.344 3.142.138 2.693a21.785 21.785 0 0 0-2.853-3.176c-.206-.033-.48.416-.344.83s3.2 3.695 3.3 3.9.207 2.9.035 2.488-3.027-3.625-3.3-3.418-.653.586-.447.9 3.645 3.9 3.75 4.246.24 2.106 0 1.9zM9.926 22.532c.79.38 7.394 4.764 8.047 5.144s2.407.1 4.505-.794 5.777-2.727 5.915-3.107a79.673 79.673 0 0 0-.034-8.078c-.14-1.105.032-5.455-.415-5.593s-8.6 4.04-11.005 5.49-8.425 4.53-8.665 4.832c-.55.69.86 1.726 1.65 2.106zm2.614-.9c.093-.3 6.706-3.9 9.045-5.49s4.85-3 5.09-2.554.894 8.8.275 9.39-7.29 3.832-8.116 3.314-6.672-3.417-6.294-4.66zm21.94 1.76c.1.45 6.88 3.59 7.43 3.764a4.562 4.562 0 0 0 2.475-.587c1-.414 9.7-5.073 10.592-5.522s1.41-.69 1.444-1.45-1.34-1.933-4.262-3.625-9.63-4.592-12.552-5.87-3.8-.89-4.4-.517c-.894.552-.62 2.59-.653 3.728s-.17 9.633-.07 10.082zm1.65-12.772c.2-.22 5.985 2.14 11.212 4.833s7.36 3.867 7.29 4.35-6.12 3.28-8.7 4.453-3.336 1.484-3.645 1.415-5.812-2.555-6.053-3.176-.034-5.627-.07-7.18-.342-4.35-.033-4.695zm1.308 18.4a34.643 34.643 0 0 0-6.053-3.42c-.653-.138-1.788.656-3.2 1.52s-3.226 2.006-3.164 2.416c.172 1.14 5.434 3.418 6.4 3.625s4.606-2.244 5.26-2.693 1.135-.932.757-1.45zm-5.95 2.486a5.718 5.718 0 0 1-1.788-1.275c-.074-.266 3.235-2.242 3.75-1.9s1.685.725 1.72 1.036-3.13 2.38-3.68 2.14zm-6.43-22.89c.688-.482 4.746-2.52 5.5-2.968s1.96.45 2.3.62.969-.168 1.142-.584S32.449 4.51 31.934 4.2s-1.1-.276-2.1.1a70.936 70.936 0 0 0-6.26 3.383c-.242.241.024.916.242 1.036.377.207.55.38 1.237-.1zM6.83 18.425c.38-.345.035-.552-.48-.863s-3.267 1-3.542 1.45a5.951 5.951 0 0 0 .62 3.212c.377.31.893-.138 1.2-.552s-.17-1.312-.24-1.76 2.064-1.14 2.44-1.486zm2.41 14.948c1.134-.69 2.957-1.52 2.75-2.07s-3.955-3.074-4.78-3.59a1.865 1.865 0 0 0-2.27.55c-.1.312 0 4.35.034 5.04s-.138 1.485.722 1.9 2.408-1.14 3.543-1.83zm-1.2-2.933c.14-.28 1.582.76 1.548 1.07s-1.243 1.207-1.588 1-.1-1.8.036-2.07zm18.88 8.18c-.79-.45-8.46-4.452-8.976-4.522s-12.17 6.18-12.181 6.387c-.034.62 3.473 2.106 7.875 4.626s12.345 7.147 13.033 7.6a1.783 1.783 0 0 0 2.1-.207c.448-.449.1-10.876.07-11.74s-1.135-1.69-1.926-2.14zm.378 12.43c-.55-.1-10.867-5.973-12.518-6.837a8.872 8.872 0 0 1-2.854-1.968c.12-.6 7.155-5.558 7.877-5.386s7.222 3.486 7.463 3.97.583 10.323.033 10.22zM42.94 33.924c-1-.138-9.1 4.164-9.284 4.8-.138.482.757 10.32.825 10.632a1.872 1.872 0 0 0 1.274 1.07c.688.173 2.3-.483 4.918-1.864s12.38-7.112 12.725-7.7a1.986 1.986 0 0 0-.07-1.83 80.966 80.966 0 0 0-10.384-5.108zm.344 11.565c-3.473 2.037-6.465 3.867-6.947 3.418s-1.135-7.146-1.1-7.63c.03-.43 8.907-5.247 9.8-4.9s6.982 3 7.017 3.59-5.296 3.485-8.77 5.522zm13.48-20.783a56.08 56.08 0 0 0-7.943 4.833c-.17 1.588 3.68 2.313 5.367 3s3.336 1.415 3.748.932.138-4.453.07-6.628-.723-2.14-1.24-2.14zm-.205 7.112c-.483-.175-4.954-2-5.264-2.28-.346-.31 4.78-3.177 5.158-2.83s.585 5.28.1 5.11z" transform="translate(27 21)"/></g></svg>