<svg xmlns="http://www.w3.org/2000/svg" viewBox="0 0 106.001 92"><defs><style>.cls-1{fill:#fee}.cls-2{filter:url(#if_social_47_492991)}</style><filter id="if_social_47_492991" x="0" y="0" width="106.001" height="92" filterUnits="userSpaceOnUse"><feOffset dx="-6"/><feGaussianBlur stdDeviation="7" result="blur"/><feFlood flood-color="#21d4fd"/><feComposite operator="in" in2="blur"/><feComposite in="SourceGraphic"/></filter></defs><g class="cls-2"><path id="if_social_47_492991-2" data-name="if_social_47_492991" class="cls-1" d="M7.352 10.71a20.747 20.747 0 0 0-4.04.208c-.348.243-.2 6.717.035 6.69A8.516 8.516 0 0 0 4.5 17.47c.173-.07.07-5.027.07-5.3s3.238-.07 3.62-.38-.1-1.076-.835-1.076zm1.185 15.22a2.435 2.435 0 0 0 1.15 1.942 2.571 2.571 0 0 0 2.09.693 77.193 77.193 0 0 0 8.254-.763c2.3-.45 3.31-2.635 3.59-5.235s-.593-4.61-2.613-5.686-5.643-1.35-7.315-1.247a31.96 31.96 0 0 0-4.6.693c-1.533.45-.627 8.6-.557 9.6zm3.726-6.172a3.866 3.866 0 0 1 2.055-1.11c.94-.1 6.2-.45 6.688.07a5.268 5.268 0 0 1 1.22 4.715c-.66 2.185-1.708 2.982-3.45 3.19s-5.293.52-6.164.555-.906.277-.975-.1-.174-5.686-.21-6 .418-.936.836-1.318zM8.92 29.674c-.035-.416-.557-.243-.975-.416s-.418-2.6-.488-3.016-1.323-.55-1.463-.1a21.092 21.092 0 0 0 .28 4.438c.138.555 1.148.208 2.193.173s.488-.66.453-1.076zM24.872 14.28c1.324 1.7 1.08 3.4 1.324 3.745s.906.173 1.324-.035.383-2.323-1.463-4.438c-2.088-2.392-4.174-2.41-4.493-2.323-.383.1-.488.97-.21 1.212s2.145.076 3.518 1.84zm6.177 15.9l.6-1.9c.6-1.9 1.858-8 .743-12.25s-6.78-7.165-9.38-8.413-12.63-.27-15.603-.039-6.865.2-7.337.832c-.28.37.325 16.18.464 23.76S.49 52.463.582 52.787a28.2 28.2 0 0 0 2.554 3.375c.325.277.882 0 2.694 0s7.525.508 12.17.786 8.73-.555 11.377-2.265 5.248-7.257 5.434-14.33-3.76-10.17-3.76-10.17zm.44 8.506c-.07-.1-.73-1.283-1.045-1.213s-.766.624-.662.936 1.88 3.156 1.846 3.4-.1 1-.314.762-1.5-2.808-1.672-2.808-.87.485-.662 1.04 1.88 3.536 1.916 3.918-.383 2.01-.522 1.768a26.163 26.163 0 0 0-1.985-3.26c-.209 0-.8.73-.7 1.04s1.985 3.364 1.95 3.572-.974 1.42-1.183 1.352-1.706-3.675-1.95-3.71-1.15.277-.975.66a43.561 43.561 0 0 1 1.846 4.02c-.07.21-.417.66-.59.556s-1.708-4.022-2.02-4.09-1.08.38-1.01.554 2.197 3.817 2.058 4.024-.662.867-.906.555-2.055-4.362-2.37-4.362-.905.485-.8.763 2.37 3.918 1.846 4.09-1.115.174-1.22 0-1.915-3.882-2.09-3.95-.905.068-.87.346 2.02 3.57 1.707 3.64a4.033 4.033 0 0 1-1.636-.14c-.139-.14-1.5-3.674-1.81-3.71s-1.046.382-.94.625a24.684 24.684 0 0 1 1.392 3.05c-.174 0-1.567-.034-1.567-.034a19.639 19.639 0 0 0-1.673-3.12c-.28-.07-.975.416-.87.66s1.462 2.322 1.253 2.322a5.138 5.138 0 0 1-1.463-.07c-.21-.138-1.393-2.877-1.707-2.91s-.906.034-.94.415 1.358 2.67 1.15 2.74a2.882 2.882 0 0 1-1.08 0c-.175-.07-1.36-2.844-1.6-2.844s-1.045.312-1.045.59 1.29 2.183 1.115 2.183a7.5 7.5 0 0 1-1.533-.036c-.144-.11-1.258-2.78-1.398-2.78s-1.114.485-1.044.59 1.115 1.836.906 1.906a4.888 4.888 0 0 1-1.742.035c-.244-.138-.73-2.253-.906-2.253s-.836.416-.8.624.556 1.734.417 1.77-1.392.138-1.462 0-.1-12-.14-17.856-.522-24.2-.383-24.513c.11-.246 5.33-.588 9.37-.8s9.927-.624 12.19.485 7.21 3.986 6.9 9.082-1.5 7.974-2.438 8.875-2.37 1.11-2.37 1.768 1.464.624 1.917 1.11a35.874 35.874 0 0 1 3.38 3.847c.07.417.07.485-.07.555s-.837.8-.558.936a8.085 8.085 0 0 1 1.672 2.22c.034.347-.036 1.18-.106 1.075zm-8.777-5.166c-.557-.416-6.93-.832-9.44-.832s-4.563.072-4.84.624c-.175.347-.1 12.516-.036 12.828s.383.347 1.15.416 5.642.07 7.28.1a11.18 11.18 0 0 0 5.955-1.04c2.682-1.248 3.344-2.947 3.17-6.17a8.817 8.817 0 0 0-3.24-5.93zm1.81 7.87a4.573 4.573 0 0 1-3.83 3.744 63.066 63.066 0 0 1-7.315-.035c-1.15-.034-1.29.07-1.324-.034s-.1-7.454.035-7.94c.13-.452 2.054-.9 5.433-1.178s4.772-.38 5.4.1 1.81 3.5 1.6 5.34zm17.173-19.413a33.767 33.767 0 0 0 6.06-.208c3.24-.244 9.614-.21 9.963-.21s.312-4.575.208-5.442-2.682-1.42-4.667-1.525-12.05-.208-12.782.07-.73 4.99-.488 5.407a9.7 9.7 0 0 0 1.711 1.907zm-.1-5.824c.18-.133 8.36-.277 10.45-.173s2.334.173 2.473.416a2.586 2.586 0 0 1-.035 1.7c-.244.276-8.708.207-10.45.207s-2.09.173-2.368-.035a3.691 3.691 0 0 1-.07-2.115zm21.139 27.493a40.226 40.226 0 0 0-5.817-.173c-.417.07-.836 2.08-1.742 3.155s-3.448 1.317-4.284 1.005-2.02-4.784-1.915-4.992 11.738-.346 12.052-.346 1.6-1.976 1.707-2.15a16.61 16.61 0 0 0 .348-4.992c-.1-3.086-.14-3.987-1.81-6.483s-5.435-4.16-7.873-4.44-6.62-.38-9.475.937a13.551 13.551 0 0 0-6.13 5.3A20.142 20.142 0 0 0 35.7 40.8c.313 3.779 2.508 8.77 4.18 10.61a14.542 14.542 0 0 0 9.335 4.23 23.555 23.555 0 0 0 10.45-1.422c3.2-1.282 4.18-5.858 4.318-6.586a9.949 9.949 0 0 0-1.254-3.988zM49.5 52.21c-.244-.174-1.567-3.156-1.846-3.295a1.211 1.211 0 0 0-1.184.243c-.174.277.94 2.6.627 2.53a14.846 14.846 0 0 1-6.374-4.194 18.22 18.22 0 0 1-3.8-9.29c-.174-2.844 1.88-7.56 4.075-9.5s4.492-3.225 9.264-3.26a13.839 13.839 0 0 1 7.628 2.115 7.56 7.56 0 0 1 3.553 4.853c.174 1.075.348 2.358.174 2.323s-.976-3.294-1.185-3.26a1.531 1.531 0 0 0-.836 1.11c0 .485 1.915 4.923 1.915 5.2s.174 1.283-.035 1.317-1.95-4.992-2.194-4.992-.975.1-.906.73 1.916 4.47 1.776 4.506a2.162 2.162 0 0 1-1.045-.035c-.278-.138-1.323-3.57-1.67-3.6s-.767.52-.732.728 1.15 2.843 1.01 2.843h-.348a19.726 19.726 0 0 0-1.324-2.74c-.174 0-.836.21-.8.417s1.01 2.5 1.01 2.5-.42.138-.558-.1a17.029 17.029 0 0 0-1.29-2.774c-.243-.034-.835.452-.73.73a10.876 10.876 0 0 1 .662 2.114c-.14 0-.627.14-.73-.07s-.907-2.426-1.185-2.46-1.15.346-1.01.554.836 1.942.662 1.942-7.315-.243-7.524.035a10.079 10.079 0 0 0-.14 4.715 6.2 6.2 0 0 0 3.17 4.195c1.568.66 1.917.8 1.917.8l1.045 3.155s-.8.106-1.047-.068zm2.3-.07a8.853 8.853 0 0 1-1.22-2.7c.11-.326.8-.14 1.08.07a8.658 8.658 0 0 1 1.254 2.67 1.565 1.565 0 0 1-1.114-.04zm2.75 0a.444.444 0 0 1-.488-.07 14.255 14.255 0 0 1-1.393-2.6c-.055-.163.662-.242.906 0a9.293 9.293 0 0 1 .975 2.67zm2.682-.97c-.21.276-1.29.935-1.533.658a15.444 15.444 0 0 1-.975-3.05c0-.28.592-.625.87-.486s1.847 2.6 1.638 2.877zm.94-.555a15.827 15.827 0 0 1-1.67-3.12.329.329 0 0 1 .487-.347 13.736 13.736 0 0 1 1.707 3.224c-.07.243-.244.312-.523.243zm1.255-.97a34.134 34.134 0 0 1-1.88-4.16c-.043-.3.208-.417.59-.417s1.917 3.814 1.917 3.918-.383.866-.627.658zm1.463-1.7c-.453 0-1.254-2.6-1.22-2.843A3.59 3.59 0 0 1 61.55 45c.174.171-.21 2.945-.662 2.945zm-12.054-13.07c1.88 0 7.35-.1 7.7-.1s.313-1.11.174-2.184a4.441 4.441 0 0 0-3.97-3.848c-3.03-.45-6.1.693-7.28 2.08s-1.19 3.857-.907 3.987a24.894 24.894 0 0 0 4.286.07zm1.045-3.467a8.03 8.03 0 0 1 3.623-.45c.8.138 2.742 1.91 1.6 2.287a47.988 47.988 0 0 1-6.827.14c-.233-.07.245-1.492 1.6-1.977zm-6.338-2.566c-.28-.173-2.578 1.976-3.622 4.09s-1.657 5.272-1.358 5.41c.453.207.418.1.73.068s.49-1.733 1.22-3.78a15.558 15.558 0 0 1 2.786-4.3c.836-1.178.522-1.317.244-1.49z" transform="translate(27 14)"/></g></svg>