<svg xmlns="http://www.w3.org/2000/svg" viewBox="0 0 106.001 100.999"><defs><style>.cls-1{fill:#fee}.cls-2{filter:url(#if_social_48_492992)}</style><filter id="if_social_48_492992" x="0" y="0" width="106.001" height="100.999" filterUnits="userSpaceOnUse"><feOffset dx="-6"/><feGaussianBlur stdDeviation="7" result="blur"/><feFlood flood-color="#21d4fd"/><feComposite operator="in" in2="blur"/><feComposite in="SourceGraphic"/></filter></defs><g class="cls-2"><path id="if_social_48_492992-2" data-name="if_social_48_492992" class="cls-1" d="M4.843 20.24c1.944 1.244 5.646 1.29 8.052 1.106s6.155-3.135 6.386-8.3a9.624 9.624 0 0 0-3.47-7.885c-4.442-3.78-10.55-1.613-11.846-.83S-.8 8.25.17 12.54s2.352 6.212 4.673 7.7zM3.12 6.81c.953-1.338 2.984-2.733 6.9-2.145s5.037 2.282 6.08 3.908a5.721 5.721 0 0 1 .97 3.078S14.536 7.3 14.155 7.364s-.937.795-.66 1.245 3.16 4.288 3.055 4.565-.207 1.072-.346.865-2.43-4.288-2.742-4.22a.854.854 0 0 0-.52 1.108c.207.553 2.706 3.908 2.6 4.046s-.555.76-.694.553-2.048-3.977-2.43-3.873a.786.786 0 0 0-.45 1.14c.243.623 2.29 3.32 2.152 3.494s-.52.553-.694.45-2.152-3.285-2.464-3.25-.937.69-.59 1.106 2.117 2.663 1.91 2.767a6.105 6.105 0 0 1-1.736.276c-.208-.07-1.18-2.248-1.492-2.248s-.972.484-.868.9 1.32 1.45.972 1.59a11.771 11.771 0 0 1-5.518-1.522C2.046 15.214.308 10.752 3.12 6.81zm2.394 8.023c.278-.277.243-.38.243-.726s-.937-1-1.11-1.557a3.783 3.783 0 0 1 .763-3.01c.8-.83 1.006-1.382.347-1.66s-2.082.59-2.395 2.42a5.687 5.687 0 0 0 .555 4.115c.555.693 1.31.702 1.597.418zm3.436 12.8a29.484 29.484 0 0 0-4.894-.138c-.452.07-.59 5.187-.52 5.74s0 1.42.45 1.453a4.037 4.037 0 0 0 .972.035c.208-.07.347-5.153.45-5.533s3.82-.07 3.992-.242a.93.93 0 0 0-.45-1.315zm8.99-3.147c-1.39-.518-8.573-.69-11.038-.725s-5.264-.1-5.622.484C1 24.69 1.14 34.648 1 41.184S.447 57.68.655 58.06s4.2 3.216 4.512 3.458 1.11.346 3.228.31 9.024.312 9.857.1 1.77-.52 2.048-1.107.347-3.6.486-10.41 1.145-15.872.972-19.47-2.43-5.946-3.82-6.465zm.068 8.543c-.208-.07-2.152-3.285-2.5-2.905s-.45.726-.034 1.35a39.565 39.565 0 0 1 2.43 3.976 7.66 7.66 0 0 1-.036 2.04c-.14 0-2.5-3.77-2.776-3.63a1.213 1.213 0 0 0-.486.967c.07.208 3.09 4.15 3.158 4.842s0 1.695-.14 1.522-2.36-4.565-2.74-4.357a1.24 1.24 0 0 0-.417 1.522c.312.518 2.985 4.287 3.054 4.495s0 1.867-.173 1.764-2.464-4.358-2.81-4.324-.695.9-.556 1.383 3.4 4.737 3.333 5.22-.035 2.318-.208 2.214-2.88-5.014-3.124-5.084-.728.865-.59 1.245 3.576 6.017 3.61 6.5 0 3.148-.243 3.01-3.332-6.225-3.852-6.26-.59 1.038-.486 1.35 4.06 6.432 4.164 6.778a.675.675 0 0 1-.382.865c-.382.173-.555.138-.59.035s-3.054-5.4-3.54-5.568-.833.553-.8.726 3.68 4.946 3.332 5.257a1.6 1.6 0 0 1-1.562.1c-.243-.24-3.262-5.463-3.61-5.463s-1.04.9-.8 1.14 3.193 4.428 2.915 4.428-1.25.31-1.492.1-2.568-4.116-2.95-4.082-.73.484-.694.588 2.36 3.25 2.082 3.32a3.827 3.827 0 0 1-1.423-.035c-.177-.1-1.667-2.973-1.947-3.041s-.867.52-.867.692S6.1 57.994 5.686 58.1a12.5 12.5 0 0 1-2.672-.173 2.543 2.543 0 0 1-.9-1.487c-.035-.657.208-30.432.52-31.02.105-.2 6.18.07 9.337.31s5.24-.172 5.69.38a6.287 6.287 0 0 1 .417 3.148c-.174-.173-1.388-2.56-1.805-2.455a1.157 1.157 0 0 0-.52 1.382c.207.45 2.22 3.32 2.324 3.666s.14 1.244-.068 1.175zM63.75 36.24a12.5 12.5 0 0 0-6.073-9.788c-3.367-2.144-9.058-2.732-12.91-1.937s-7.914 4.323-8.053 4.288-.035-2.974-.14-3.7-1.422-.622-4.72-.657-7.75.02-7.808.277c-.174.76.14 15.908.174 21.372s-.243 11.447 0 12.138 2.464 3.25 3.3 3.25 8.885-.137 10.238-.31 1.388-1.452 1.388-3.216-.035-15.078.555-19.262 3.922-5.74 6.63-5.05 3.157 3.7 3.713 7.367-.485 14.075-.52 15.216.14 4.46.764 4.7 10.1.036 11.488-.034 1.874-.242 2.082-1.176.21-19.158-.1-23.48zm-5.09-2.468a64.947 64.947 0 0 1 3.263 5.628c0 .415-.046 1.43-.162 1.314s-2.174-3.964-2.567-3.964-.9.807-.74 1.13 3.124 4.8 3.147 5.14a11.05 11.05 0 0 1-.046 2.26c-.116-.184-2.707-4.772-2.962-4.772s-.532.784-.532 1.153 3.31 5.44 3.332 5.6 0 3.342-.278 3.3-1.25-1.66-2.1-3.48-.973-2.353-1.39-2.26-.277 1.475-.184 1.82 3.285 5.672 3.332 5.95.093 2.65-.185 2.443-3.1-6.295-3.447-6.34-.787.967-.694 1.152 3.54 5.948 3.633 6.778 0 1.29-.255 1.29-.37-.16-.486-.39-3.24-5.534-3.4-5.557-.65.968-.464 1.268 3.008 4.474 2.846 4.52a5.3 5.3 0 0 1-1.48-.046c-.14-.092-2.523-3.712-2.685-3.712s-.786.784-.67.99 2.013 2.606 1.782 2.675a2.6 2.6 0 0 1-1.273-.046c-.139-.138-1.528-2.65-1.875-2.627s-.648.738-.578.876 1.41 1.913 1.04 2.005-1.526.16-1.526.023.6-4.565.65-8.346a67.021 67.021 0 0 0-.65-10.4c-.415-2.582-.693-5.05-2.52-6.063a7.722 7.722 0 0 0-7.4-.022 10.772 10.772 0 0 0-3.68 3.666 2.577 2.577 0 0 0-.415 1.153s-1.273-2.26-1.758-1.637-.532 1.014-.347 1.176 1.55 1.314 1.6 1.8a17.336 17.336 0 0 1 .047 2.86c-.116 0-1.735-3.183-2.1-3s-.483 1.38-.435 1.52a37.379 37.379 0 0 1 2.1 3.39 9.651 9.651 0 0 1-.092 2.005c-.093-.07-2.29-3.988-2.5-3.9a1.754 1.754 0 0 0-.6 1.107c.045.277 3.238 5.026 3.26 5.256a11.109 11.109 0 0 1-.207 2.86c-.207 0-2.775-5.21-2.96-5.21a2.047 2.047 0 0 0-.74 1.29c.068.3 3.562 5.625 3.655 5.994a15.823 15.823 0 0 1 0 3.158c-.116 0-3.68-7.285-3.91-7.285s-.88.945-.833 1.037 3.84 6.64 3.84 6.94-.092.368-.092.368-.278.092-.347-.023-3.077-5-3.355-5.073-1 .715-.833.945a47.821 47.821 0 0 1 3.008 4.2 3.416 3.416 0 0 1-1.6 0c-.14-.092-2.314-3.965-2.568-3.92a2.222 2.222 0 0 0-.834 1.06c.046.116 2.13 2.93 2.106 3a3.028 3.028 0 0 1-1.3.023c-.116-.116-1.92-2.952-2.36-3s-.717.922-.578 1.037S28.011 58 27.731 58s-2.313.138-2.36-.37.394-10.374.37-13.647-.346-17.29-.184-18.052c.034-.16 6.5-.023 7.59-.046a4.159 4.159 0 0 1 1.873.16c.093.137-.046 5.4.324 5.58s1.366-.807 1.667-1.06a20.774 20.774 0 0 1 5.067-3.112 18.478 18.478 0 0 1 10.11-1.36c2.29.507 4.767 1.222 6.41 3.412a18.739 18.739 0 0 1 3.1 5.233c.3 1.177.3 2.214.14 2.168s-2.083-4.772-2.615-4.657-.675 1.337-.56 1.522zm-26.1-6.294a31.87 31.87 0 0 0-4.65-.16c-.28 0-.44.483-.394.668a1.356 1.356 0 0 0 .093.807c.186.254 3.425.138 3.772.138s.393 1.707.44 2.053 1.18.092 1.342.07.162-.554.162-1.315a3.691 3.691 0 0 0-.764-2.26zm13.3 1.96a.755.755 0 0 0 .162 1.268c.6.254 3.24.83 4.627 1.937s1.435 4.288 1.458 4.61.95.577 1.365.116.23-2.72-1.273-5.327-6.08-2.76-6.34-2.6z" transform="translate(27 18)"/></g></svg>