<svg xmlns="http://www.w3.org/2000/svg" viewBox="0 0 87 105.999"><defs><style>.cls-1{fill:#fee}.cls-2{filter:url(#if_periscope_1242849)}</style><filter id="if_periscope_1242849" x="0" y="0" width="87" height="105.999" filterUnits="userSpaceOnUse"><feOffset dx="-6" dy="3"/><feGaussianBlur stdDeviation="7" result="blur"/><feFlood flood-color="#21d4fd"/><feComposite operator="in" in2="blur"/><feComposite in="SourceGraphic"/></filter></defs><g class="cls-2"><path id="if_periscope_1242849-2" data-name="if_periscope_1242849" class="cls-1" d="M50.02 11.21C45.62 2.65 38.833-.25 31.5.018c-15 .549-19.183 9.767-21.193 15.034s-1.63 9.22.652 15.255 9.887 20.8 12.495 25.9S29.213 64 32.42 64s5-.713 7.442-3.292 8.91-14.76 12.17-23.54 2.39-17.4-2.01-25.957zm-.814 13.226c-.435-.055-.652 1.1-.6 1.317s3.26 4.06 3.26 4.5-.163 2.523-.38 2.3-3.042-3.84-3.26-3.84-.652.6-.49 1.1 3.206 4.06 3.206 4.61-.543 3.182-.87 2.853-2.77-4.5-3.26-4.39-.6.933-.542 1.152 3.368 4.226 3.26 4.83a9.626 9.626 0 0 1-.543 1.59s-3.1-4.445-3.424-4.445-.76.878-.652 1.1 3.26 4.17 3.15 4.61a19.353 19.353 0 0 1-.923 2.03s-2.715-4.5-3.15-4.61-.978.824-.815.934 3.368 4.445 3.205 4.774-1.14 1.81-1.14 1.81-3.152-4.28-3.37-4.28-1.03.934-1.03.934 3.367 4.06 3.26 4.554-.925 2.14-1.2 1.92-3.26-4.554-3.586-4.554-1.087.713-.978 1.1 3.64 5.048 3.586 5.323a19.771 19.771 0 0 1-1.195 2.03S37.744 48.8 37.418 48.8s-.978.768-.87.933 3.478 4.83 3.424 5.158-1.194 1.373-1.194 1.373-3.205-4.5-3.423-4.554-.76.712-.706.987 3.368 4.006 3.1 4.554a3.581 3.581 0 0 1-1.3 1.208c-.164.055-2.608-4.5-3.15-4.554s-1.142.44-.925.823 3.26 4.554 2.934 4.94-1.577.273-1.577.273a37.361 37.361 0 0 0-2.717-4.006c-.326-.11-1.087.33-.978.494a34.972 34.972 0 0 1 2.164 3.786c-.162.055-3.15-.055-6.356-4.94s-11.68-20.412-13.69-26.613a20.962 20.962 0 0 1 1.63-17.23C16.716 5.89 24.54 1.72 31.548 1.664c4.51-.035 9.56.384 14.885 6.64s5.922 14.212 5.76 14.212-1.577-2.305-1.9-2.305a.9.9 0 0 0-.652 1.043c.164.44 2.446 3.512 2.554 4.006a12.612 12.612 0 0 1-.054 3.29c-.163-.053-2.5-4.06-2.933-4.114zM17.966 10a15.573 15.573 0 0 0-4.29 8.23s.6.44.977.33.11-.494 1.032-2.908a17.343 17.343 0 0 1 2.988-4.664s-.36-1.337-.707-.988zm12.768-.823c-1.467.166-1.3 1.7-1.032 2.416s-.054 5.213-3.477 6.036-5.49-1.76-5.65-1.646c-3.042 2.14-2.282 9.383 1.14 14.542s11.464 5.816 16.57 2.963 8.368-8.834 5.108-16.79S32.2 9.018 30.734 9.181zM42.09 22.79c-.544 8.12-5.76 10.755-10.812 10.536s-7.17-3.9-8.1-5.872-.815-6.2-.11-6.53a8.754 8.754 0 0 0 7.172-1.81c3.368-2.853 3.314-5.872 3.966-6.092s8.423 1.646 7.879 9.768z" transform="translate(18 18)"/></g></svg>