<svg xmlns="http://www.w3.org/2000/svg" xmlns:xlink="http://www.w3.org/1999/xlink" viewBox="0 0 106 99.996">
  <defs>
    <style>
      .cls-1 {
        fill: #fee;
      }

      .cls-2 {
        filter: url(#if_print_20_492972);
      }
    </style>
    <filter id="if_print_20_492972" x="0" y="0" width="106" height="99.996" filterUnits="userSpaceOnUse">
      <feOffset dx="-6" input="SourceAlpha"/>
      <feGaussianBlur stdDeviation="7" result="blur"/>
      <feFlood flood-color="#21d4fd"/>
      <feComposite operator="in" in2="blur"/>
      <feComposite in="SourceGraphic"/>
    </filter>
  </defs>
  <g class="cls-2" transform="matrix(1, 0, 0, 1, 0, 0)">
    <path id="if_print_20_492972-2" data-name="if_print_20_492972" class="cls-1" d="M56.862,22.209a40.782,40.782,0,0,0,0-5.528c-.236-1.748-6.143-1.606-6.143-1.606s-.094-5.906-.047-7.89-.567-3.166-2.41-3.638-13.986-.71-20.649-.425S14.857,4.54,14.479,5.06s.566,10.015.566,10.015-1.087.047-2.457.094a7.413,7.413,0,0,0-4.113,1.843c-.378.614.473,6.52.473,6.52s-2.362.095-3.826.142S.881,24.3.493,24.808c-.9,1.18-.332,24.376-.143,27.259s2.034,3.826,2.6,3.92,11.624.047,12.189.236.19,2.693.38,3.544S18.212,61,19.583,61s10.631-.9,17.671-1.18,10.962-.143,12.1-.8.71-4.063.71-4.063,2.976,0,4.063.094,9.072.425,9.5.094.33-26.219.378-29.951-7.135-2.976-7.135-2.976ZM55.208,17.3c.144.52.616,4.44.286,4.536s-.567.19-.567.047a7.744,7.744,0,0,0-.615-1.843c-.378-.8-.9-1.748-1.228-1.843s-.8.425-.71.614,1.75,2.93,1.513,2.93-.946-.048-.946-.048a22.151,22.151,0,0,0-1.465-3.024,1.69,1.69,0,0,0-.57.236l-.235-2.032c.235-.093,4.393-.093,4.535.427Zm-3.542,4.488-.71-.047V20.414A9.446,9.446,0,0,1,51.666,21.784ZM16.039,6.052a80.487,80.487,0,0,1,17.245-1.7c9.45,0,14.223-.285,15.4,1.368s.472,15.919.472,15.919-9.592-.046-18.191.615-13.844.992-14.079.756c0,0-.662-9.4-.8-12.379s-.236-4.44-.047-4.58Zm-6.1,11.339c.378-.473,2.457-.993,3.638-.993s1.514-.1,1.56.14a12.825,12.825,0,0,1,0,1.37s-.566-1.04-1.04-.756-.66.567-.52.756,1.75,2.978,1.75,2.978l.14,1.843s-2.93-5.762-3.353-5.526-.614.567-.52.756,2.552,5.48,2.552,5.48h-.66s-1.845-3.544-2.223-3.5-.662.614-.662.614a23.828,23.828,0,0,1,1.18,2.835c-.143,0-1.133.095-1.133.095-.14-.427-1.085-5.624-.707-6.1ZM48.074,57.879c-.284.142-11.009.71-20.365,1.087s-10.017.33-10.253-.05.19-6.236.284-7.23a24.411,24.411,0,0,1,.66-4.014c.2-.195,5.34-.8,13.987-1.323s15.356-.614,15.923-.142.047,11.529-.236,11.669ZM62.343,39.5c0,.284.284,3.214,0,3.26s-.425.237-.472-.094-2.74-7.37-3.072-7.418-1.228.614-.992.71,3.686,8.456,3.686,8.456v4.63s-4.347-8.363-4.914-9.308-.425-2.6-1.04-2.5-.945.66-.33,1.89,6.236,11.1,6.236,11.244.33.66.142.66-1.938.14-2.08-.143-6.9-13.369-7.37-13.606-1.04.473-.945.615S58.374,50.507,58.185,50.6a33.278,33.278,0,0,1-3.686.377c-.614,0-1.512-.047-1.607-.378s-.378-3.307-.047-3.07,1.607,2.41,2.08,2.5.424-.33.283-.614-4.912-9.733-5.67-10.582-.85-1.04-1.32-.85-.474.425-.237.662,2.457,3.78,2.173,3.827-.756.234-1.134-.144-2.74-4.49-3.306-4.49-1.087.332-.71.757,3.12,4.063,2.458,4.016a8.023,8.023,0,0,1-2.126-.237c-.236-.19-1.795-3.213-2.126-3.26s-.71.047-.567.378,1.654,2.836,1.418,2.93-.99.425-1.133.19-2.41-3.4-2.693-3.356-.945.71-.66.992,1.89,2.315,1.558,2.457a3.679,3.679,0,0,1-1.89.236c-.378-.19-2.032-2.5-2.315-2.5s-1.18,0-.8.472,1.607,2.173,1.323,2.22a4.125,4.125,0,0,1-1.512-.046c-.378-.14-1.56-1.747-1.843-1.7s-.9.14-.33.567,1.464,1.37.99,1.37-7.985-.236-12.331-.047-6.568-.093-7.42,1.135-.424,4.394-.566,5.81.33,2.552-.19,2.552-7.89-.047-9.308-.094-1.607.047-2.08-.236-1.323-1.37-1.37-5.2-.047-20.693.236-21.071c.19-.254,2.788-1.087,8.222-1.323s10.867-.66,15.781-1.04a153.191,153.191,0,0,1,16.632-.85c6.568.143,18.379.8,19.136,1.23s.945,1.133.945,3.212.094,10.3.094,10.3-1.23-3.827-1.655-3.5a1.546,1.546,0,0,0-.52.85s1.984,4.16,1.984,4.444ZM20.929,50.91c.318.073,3.224-.636,9.107-1.026s12.579-.177,13.253-.213a.662.662,0,0,0,.144-1.31c-.886-.32-4.926-.178-10.914.07S20.859,49.1,20.575,49.6c-.142.248.035,1.24.354,1.31Zm22.857,1.63c-.425-.28-6.556-.175-12.863.144s-11.446,1.123-11.446,1.488c0,.283-.035,1.17.248,1.24s3.3-.638,10.6-1.31a128.584,128.584,0,0,1,13.219-.355.73.73,0,0,0,.25-1.206Zm.425-37.308c-.46-.32-3.792-.32-13.182,0s-12.036,1.04-12.119,1.346c-.106.39-.07,1.063.32,1.276s.318,0,1.1-.177a67.587,67.587,0,0,1,10.347-1.1c5.847-.25,12.474.1,13.359,0s.637-1.03.177-1.35Zm-25.445-3.19c.6.14,5.777-.674,11.729-1.064s12.226.035,13.219.035,1.1-.886.39-1.417-8.825-.213-13.963-.142a84.512,84.512,0,0,0-11.871,1.1c-.246.392-.1,1.35.5,1.49ZM2.75,27.559c-.39.568-.145,5.456.212,5.812a1.275,1.275,0,0,0,1.24,0c.354-.213-.106-4.43-.106-4.713s3.19-.85,3.686-.96a.808.808,0,0,0,.284-1.346c-.5-.353-4.927.64-5.317,1.206Zm52.694-.78c-1.24.284-3.367,1.312-2.977,3.722s1.737,3.33,4.217,3.19a3.25,3.25,0,0,0,3.048-4.218c-.5-1.948-1.674-3.29-4.288-2.693Zm.532,5.494c-2.02-.106-2.128-2.02-2.057-2.8s1.24-1.346,2.2-1.275c.71.05,2.27.494,2.34,1.8s-.46,2.374-2.48,2.268Z" transform="translate(27 18)"/>
  </g>
</svg>
