<svg xmlns="http://www.w3.org/2000/svg" viewBox="0 0 105 106"><defs><style>.cls-1{fill:#fee}.cls-2{filter:url(#if_social_39_492985)}</style><filter id="if_social_39_492985" x="0" y="0" width="105" height="106" filterUnits="userSpaceOnUse"><feOffset dx="-6"/><feGaussianBlur stdDeviation="7" result="blur"/><feFlood flood-color="#21d4fd"/><feComposite operator="in" in2="blur"/><feComposite in="SourceGraphic"/></filter></defs><g class="cls-2"><path id="if_social_39_492985-2" data-name="if_social_39_492985" class="cls-1" d="M62.827 26.474c-.62-4.577-2.548-8.12-5-12.6s-6.91-7.683-10.053-9.914S40.267.69 36.067.276s-9.4-.442-12.9.483c-4.865 1.287-7.986 2.62-11.29 5.634a42.341 42.341 0 0 0-7.85 9.5A32.513 32.513 0 0 0 .1 27.118a32.776 32.776 0 0 0 .85 10.03c.894 3.978 2.914 7.68 5.806 12.144s6.954 7.29 11.66 10.144 14.573 5.014 18.315 4.485a28.48 28.48 0 0 0 14.162-6c5.28-4.186 8.217-11.11 9.823-15.434s2.732-11.433 2.112-16.01zM55.39 46.117a39.462 39.462 0 0 1-2.294-3.98 6.3 6.3 0 0 1 .918-1.93 43.984 43.984 0 0 1 2.2 3.978 9.106 9.106 0 0 1-.826 1.932zm-7.756-24.5a1.347 1.347 0 0 1-.115-.574 7.23 7.23 0 0 0 .46-3.013c-.185-1.357-.78-3.52-.735-3.588a12.7 12.7 0 0 1 3.833 4.968c1.377 3.1 2.548 5.474 2.984 9.683s.23 7.314-1.262 10.144a24.417 24.417 0 0 1-3.4 5.29 8.061 8.061 0 0 1-2.753 1.656c-.206 0-.94-3.726-1.515-4.9s-1.607-2.713-1.584-2.966a18.384 18.384 0 0 0 2.318-2.46 14.671 14.671 0 0 0 2.456-7.752 34.335 34.335 0 0 0-.69-6.487zm9.456 21.326c-.185.16-2.656-4.1-2.526-4.232.207-.206.9-2.414 1.033-2.506a27.271 27.271 0 0 1 2.41 4.324 10.491 10.491 0 0 1-.918 2.415zm3.12-11.317c-.3-.253-2.2-4.53-2.455-4.623s-.826.9-.69 1.265S59.728 32.8 59.8 33.19a6.418 6.418 0 0 1-.252 2.093 24.528 24.528 0 0 0-2.2-4c-.23 0-.85.806-.826.944s2.5 4.738 2.5 5.037-.344 2.186-.55 1.84-2.618-4.346-2.663-4.46.046-5.613-.23-8.074a21.2 21.2 0 0 0-4.612-11.317c-3.42-3.98-7.046-6.717-12.28-7.96A38.63 38.63 0 0 0 26.359 6.3a18.138 18.138 0 0 0-13.474 8.05c-3.88 5.612-4.453 7.176-5.325 11.225s.093 10.052.8 12.65a20.085 20.085 0 0 0 4.682 8.327A21.14 21.14 0 0 0 25.3 51.615c.252-.092.138-3.266 0-3.634s-.252-.552-1.1-.506a8.192 8.192 0 0 1-3.4-.437 5.56 5.56 0 0 1-2.41-2.415 19.378 19.378 0 0 0-1.836-2.783c-.436-.484-1.354-1.312-1.24-1.473a5.663 5.663 0 0 1 3.03.046 22.976 22.976 0 0 1 4.086 2.277 10.076 10.076 0 0 0 2.387 1.357c.39 0 1.195-1.84 1.54-2.277s1.147-1.91.8-2.23-2.456-.415-3.512-.69a8.981 8.981 0 0 1-4.315-3.083 10.964 10.964 0 0 1-1.95-6.28c.022-1.862 1.835-5.45 2.2-6.163s.85-1.38.62-1.633a8.345 8.345 0 0 1-1.446-2.6 7.151 7.151 0 0 1 .758-3.427 13.64 13.64 0 0 1 2.09.322 11.237 11.237 0 0 1 3.35 1.08c.69.46.94.69 1.33.69s3.42-.69 4.454-.92a19.731 19.731 0 0 1 5.233-.367c1.148.23 2.87 1.265 3.167 1.08a5.407 5.407 0 0 1 2.464-1.86c1.47-.368 3.97-.53 4.27-.276a9.206 9.206 0 0 1 .5 4.255c-.23 1.357-.62 2.14-.39 2.507a7.9 7.9 0 0 1 .757 5.06c-.575 2.208-1.4 5.36-4.132 7.452a25.591 25.591 0 0 1-3.948 2.645c-.32.208 0 .852.3 1.1a9.286 9.286 0 0 1 3.305 4.646 19.573 19.573 0 0 1 1.148 5.452c0 .622.713.874 1.263.76a5.805 5.805 0 0 0 2.09-1.2 23.93 23.93 0 0 1 3.625-2.415c.184.092 1.767 3.473 2.157 3.588a.549.549 0 0 0 .71-.39 27.06 27.06 0 0 0-1.583-3.36c-.344-.666-.6-1.057-.505-1.264s.872-1.15 1.033-.99 1.86 2.853 2.157 3.313.528.552.207 1.1a15.309 15.309 0 0 1-2 2.508c-.55.483-.757 1.08-1.08.828s-1.927-3.15-2.18-3.2-.94.574-.87.78 2.18 3.336 2.18 3.474a9.488 9.488 0 0 1-2.158 2.346c-1.1.851-1.814 1.38-2.02 1.08s-2.365-5.312-2.71-5.38-1.055.183-.94.6 2.754 5.06 2.73 5.29-.87.782-1.124.552-3.03-5.958-3.374-6-.94.115-.94.667 3.58 5.635 3.42 5.91-.827.9-1.08.645-3.535-6.808-3.764-6.854-1.056.184-1.056.345 3.718 7.06 3.695 7.22-1.446.852-1.767.69-3.58-7.45-3.833-7.612-1.262.53-1.193.62 4.017 6.947 3.81 7.292a1.288 1.288 0 0 1-1.285.3c-.162-.162-3.857-7.223-4.11-7.292s-1.032.322-.963.62 3.925 6.74 3.81 6.786a3.343 3.343 0 0 1-1.262-.023c-.16-.114-3.49-5.335-3.9-5.45s-.9.506-.9.644 3.19 4.738 3.03 4.784a4.1 4.1 0 0 1-1.446-.184c-.23-.138-2.433-4.048-2.73-4.14s-1.01.437-.92.667 2.25 3.175 1.975 3.175a3.421 3.421 0 0 1-1.33-.16c-.322-.185-1.837-3.267-2.113-3.36s-.826.323-.85.438 1.172 2.277.92 2.3a3.015 3.015 0 0 1-1.286-.184c-.207-.162-1.607-2.508-1.813-2.577s-.872.3-.8.506.734 1.218.5 1.24a26.471 26.471 0 0 1-7.505-3.035c-2.548-1.748-7.3-7.13-8.768-8.763s-3.512-6.51-4.223-9.155a37.507 37.507 0 0 1-.87-8.67c.022-2.094 1.652-7.59 2.57-9.455a51.785 51.785 0 0 1 6.84-9.338A26.249 26.249 0 0 1 21.2 2.669a32.548 32.548 0 0 1 9.364-1.45 46.38 46.38 0 0 1 12.69 1.772c3.122 1.058 8.952 5.658 10.4 7.314a34.552 34.552 0 0 1 4.223 6.785 17.146 17.146 0 0 1 1.585 3.863c-.205-.161-1.492-2.415-1.744-2.392s-.8.415-.71.714 2.433 3.933 2.662 4.393a11.062 11.062 0 0 1 .482 1.08c.023.093.32 3.244.23 3.083a42.417 42.417 0 0 0-2.617-4.324c-.3-.115-.528.345-.46.46s3.1 5.29 3.1 5.543.112 2.37-.186 2.116zm-41.634-9.844c.482.46-.62 1.2-1.4 2.92a14.543 14.543 0 0 0-1.08 7.177 11.142 11.142 0 0 0 3.558 6.37c2.2 1.91 5.187 2.024 5.508 2.185s-.55 1.31-.734 1.54-.16.185-.6-.045-2.937-2.37-5.553-2.92-4.223.23-4.8.735.07 1.426.8 1.978a10.955 10.955 0 0 1 2.662 3.565 5.048 5.048 0 0 0 3.49 3.013 12.122 12.122 0 0 0 3.4.645c.276.023.208.828.024 1.127s-.9-.46-1.95-.76-3.03-.482-4.132-1.172-4.66-4.853-5.325-6.67-2.066-5.91-2.09-7.958-.183-5.543.62-8.165a28.444 28.444 0 0 1 5.257-9.96c2.685-2.99 6.564-5.29 12.3-5.91s10.787 1.1 13.932 2.184 3.88 1.75 3.88 1.956a31.477 31.477 0 0 1-3.42.345 6.867 6.867 0 0 0-4.171 1.638c-.092.16-2.617-.414-5.256-.62a22.556 22.556 0 0 0-6.426.965 4.341 4.341 0 0 1-1.492-.415 41 41 0 0 0-6.243-1.38c-.55.046-1.767 1.54-2.02 3.772a4.362 4.362 0 0 0 1.263 3.865zM37.26 2.277c-4.11-.575-6.732-.306-6.91-.138-.412.39-.274 1.15.23 1.24a52.248 52.248 0 0 1 6.2.024 30.987 30.987 0 0 1 6.12 1.564c.505.023.8-.8.528-1.1s-2.066-1.012-6.174-1.587zM6.824 17.664c-3.26 3.38-3.856 7.82-4.13 9.34s.71 2.16 1.17 1.954-.023-1.5 1.033-4.876a18.469 18.469 0 0 1 2.846-5.45c.435-.853-.687-1.208-.92-.968zm15.01 13.088a6.3 6.3 0 0 1 .138-3.312c.23-1.08-.8-1.035-1.056-.782-.666.667-.918 2.783-.666 4.094a6.822 6.822 0 0 0 2.044 3.542c.62.3 1.216-.092 1.08-.736s-1.174-1.84-1.54-2.806zm-3.74 10.6c-1.01.667-.024 1.334.39 1.334s.825-.16.642-.805a.731.731 0 0 0-1.033-.53zm2.088 1.817c-.734.414-.07 1.357.413 1.38a.853.853 0 0 0 .9-.828c.024-.483-.987-.733-1.307-.552zm2.87 1.288c-1.034.23-.69 1.243-.185 1.312a.884.884 0 0 0 1.08-.644c.136-.53-.246-.812-.9-.667zm18.43-26.473c.23.023.917.138 1.238.138s.3 1.886.46 2.46 1.01.6 1.33.277-.114-3.4-.343-3.7-2.446.12-2.73.183c-.208.045-.185.62.045.644zm6.1 36.433c.23.046.826-.23.872-.575a29.1 29.1 0 0 0-1.883-4.623c-.16-.092-1.216.262-1.216.46a25.881 25.881 0 0 0 2.227 4.738z" transform="translate(27 21)"/></g></svg>