<svg xmlns="http://www.w3.org/2000/svg" viewBox="0 0 106.001 105.997"><defs><style>.cls-1{fill:#fee}.cls-2{filter:url(#if_social_50_492947)}</style><filter id="if_social_50_492947" x="0" y="0" width="106.001" height="105.997" filterUnits="userSpaceOnUse"><feOffset dx="-6"/><feGaussianBlur stdDeviation="7" result="blur"/><feFlood flood-color="#21d4fd"/><feComposite operator="in" in2="blur"/><feComposite in="SourceGraphic"/></filter></defs><g class="cls-2"><path id="if_social_50_492947-2" data-name="if_social_50_492947" class="cls-1" d="M63.87 32.318c-.132-7.233-.44-17.47-.834-19.047s-5.39-8.81-7.1-10.388-4.861-2.3-7.688-2.367S22.16-.47 15.785.318 6.89 3.523 5.2 4.986C3.71 6.28 2 7.55 1.17 10.05s-.921 9.6-1.1 17.226 0 16.35 0 19.99a16.347 16.347 0 0 0 3.46 9.51 20.278 20.278 0 0 0 7.843 5.568c2.233.745 3.068 1.184 9.42 1.315s10.735.438 19.366.307 11.96-.482 15.772-2.41a17.2 17.2 0 0 0 7.492-8.812c.789-2.455.57-13.194.44-20.427zm-17 27.146c-.164.1-1.25.362-1.446.164s-1.906-3.912-1.94-4.077c-.054-.273 1.513-.23 1.644-.065a25.692 25.692 0 0 1 1.742 3.98zM14.5 34.84c.1 1.544 1.02 6.673 4.37 9.37s6.276 3.878 9.233 4.11a19.738 19.738 0 0 0 9.2-1.546c2.2-1.15 5.587-3.55 6.737-6.28a25.757 25.757 0 0 0 2-8.088 14.99 14.99 0 0 1 .36-3.847c.132-.034 8.742-.494 8.94-.165s.36 12.79.1 16.274-.263 6.344-1.512 7.33-1.314 1.382-5.488 1.678-10.154.953-16.56.953-13.835-.065-16.464-.36-4.73-.987-4.928-2.072-.46-8.482-.657-12.986-.033-9.3.23-9.6a18.882 18.882 0 0 1 4.567-1.25c.134.164-.227 4.932-.13 6.477zm33.52 24.393a35.92 35.92 0 0 1-1.873-3.945c0-.193 1.48-.1 1.577-.067a20.039 20.039 0 0 1 2.1 3.452 3.562 3.562 0 0 1-1.804.56zm4.107-1.15a2.558 2.558 0 0 1-1.15.394c-.13-.033-1.742-3.255-1.84-3.353-.136-.136 1.25-.132 1.48.033s1.707 2.728 1.51 2.925zm.986-.56a19.15 19.15 0 0 1-1.413-2.532c-.06-.08 1.117-.625 1.347-.46A17.3 17.3 0 0 1 54.3 56.6s-.957.989-1.187.923zm2.1-1.775a5.811 5.811 0 0 1-1.113-1.875c-.025-.145 1.215-.888 1.215-.888S56.4 54.07 56.334 54.2s-.823 1.644-1.12 1.546zm1.71-2.763c-.264.066-1.02-1.15-1.052-1.348a4.506 4.506 0 0 1 .33-1.71 10.3 10.3 0 0 1 1.51 1.544c.032.131-.527 1.447-.79 1.513zm2.233-18.477c-.2 6.9-.1 10.323-.3 12.428s-.657 3.32-.82 3.32a7.919 7.919 0 0 1-1.414-2.07c0-.23.163-5.59.2-9.83s.066-11.244-.033-12.493-.46-1.874-1.282-2.038-6.407-.23-9.3-.2-3.68 0-3.845.2a4.082 4.082 0 0 0-.13 2.038 14.8 14.8 0 0 1 .492 1.644c0 .1.2 6.74-1.15 9.336s-2.63 5.293-7.3 7.036-6.9 2.137-11.074.69a9.922 9.922 0 0 1-6.5-5.984 28.365 28.365 0 0 1-.82-9.008c.2-2.73.426-3.255.853-3.715s.92-.79.79-1.184-.46-.558-1.907-.887a48.7 48.7 0 0 0-6.473-.33c-1.313-.034-2.2.1-2.662 1.35s.427 12.46.624 17.818.525 8.22 1.872 10.06a5.694 5.694 0 0 0 4.337 2.73 57.312 57.312 0 0 0 9.265.69c3.713-.066 12.75-.362 14.95-.362s4.963-.164 5.028-.066a28.611 28.611 0 0 1 1.774 4.01 2.209 2.209 0 0 1-1.38.1c-.164-.164-1.643-3.55-2.037-3.55s-1.05.295-1.05.492 1.84 2.992 1.708 3.058a6.142 6.142 0 0 1-1.906-.033c-.164-.133-1.25-3.223-1.48-3.223s-.755.033-.853.2 1.116 2.86.985 2.893a3.366 3.366 0 0 1-1.282-.066 30.1 30.1 0 0 0-1.413-2.925c-.2 0-.756.3-.756.427a26.093 26.093 0 0 1 .723 2.564 9.382 9.382 0 0 1-1.676 0c-.13-.1-.82-2.27-1.083-2.27s-1.02.3-.953.56.887 1.808.69 1.84-7.46.33-13.407.133S10.85 60.15 8.549 59a15.616 15.616 0 0 1-6.178-6.476c-.953-2.27-1.25-8.285-1.02-12.79s-.2-10.717.1-16.8S1.291 9.1 5.989 5.795a26.256 26.256 0 0 1 5.433-3.112c1.752-.57 4.513-1.184 4.95-.745s.822 2.29 1.15 2.323 1.02-.1.888-.526-.887-1.874-.69-1.874.82-.164.986-.033a16.466 16.466 0 0 1 2.563 3.945c.526 1.479.526 1.414.756 1.414a.48.48 0 0 0 .46-.593 14.893 14.893 0 0 0-1.348-3.485c-.626-.986-.987-1.512-.823-1.512s.82-.33 1.116 0a35.29 35.29 0 0 1 2.694 4.044c.624 1.216.526 1.512.82 1.578s.69-.164.46-.756a20.783 20.783 0 0 0-1.61-3.353c-.722-1.118-1.05-1.742-.886-1.742s1.676-.13 1.906.133 2.366 4.406 3.122 6.05 1.15 2.925 1.446 2.925.56-.164.427-.427-2.3-5.095-2.924-6.673-.722-1.907-.558-1.94 1.216-.2 1.48 0 1.938 3.912 3.22 6.41 2.3 4.505 2.53 4.505.426-.3.2-.625-2.63-5.95-3.187-7-1.482-3.226-1.219-3.258 1.25-.1 1.38.163a64.752 64.752 0 0 1 3.647 7.1c1.084 2.793 1.314 3.486 1.48 3.486a.314.314 0 0 0 .262-.33c-.033-.1-1.577-4.537-2.5-6.575s-1.574-3.353-1.344-3.452 1.577-.132 1.742.132 2.86 5.852 3.516 7.266 1.02 2.4 1.216 2.4.394-.3.2-.755-2.266-6.082-2.858-7.332-.756-1.71-.56-1.71.987-.164 1.15.23 3.714 8.417 3.846 8.482.427-.164.427-.362-2.267-5.918-2.63-6.87-.558-1.382-.262-1.415a6.007 6.007 0 0 1 1.61.066c.033.1 2.464 5.59 2.694 5.622s.427-.1.427-.526a37.83 37.83 0 0 0-1.676-4.307c-.164-.33-.427-.69-.164-.723s1.774.066 1.774.066 1.25 2.73 1.61 2.762a.613.613 0 0 0 .624-.855c-.23-.525-1.02-2.038-.82-2.038s1.05-.066 1.182.132 1.577 3.42 2 3.452.69-.3.624-.56-1.577-3.058-1.413-3.058 1.38-.1 1.61.132 1.248 2.827 1.773 2.86a.55.55 0 0 0 .624-.658 11.642 11.642 0 0 1-.953-2.2c.164 0 .624-.1.854.263s1.972 4.438 2.136 4.438.79-.46.657-.822-1.51-3.518-1.313-3.616a1.648 1.648 0 0 1 1.577.723c.527.723.723 1.807 1.02 1.84s.755-.427.92-.362a8.989 8.989 0 0 1 2.53 6.312c.166 4.078 1.382 16.736 1.185 23.64zM12.695 5.052A12.155 12.155 0 0 0 7.6 7.288a9.134 9.134 0 0 0-3.217 4.832 13.342 13.342 0 0 0 .164 3.223c.23.23.92.132 1.216.033s.1-1.02.033-1.874a6.97 6.97 0 0 1 1.38-3.55 11.393 11.393 0 0 1 3.91-3.124c1.018-.427 2.07-.46 2.333-.756s.065-.987-.724-1.02zM42.1 17.545c-.428-.164-.132-2.6-.2-2.893s-1.38-.454-1.38-.1a26.109 26.109 0 0 0 0 4.242c.23.4 2.432.46 3.023.46s.33-.822.264-1.216-1.282-.328-1.71-.493zm8.843-10.882a43.617 43.617 0 0 0-6.9.2c-.59.2-.59 2.137-.56 3.715s.083 5.373.33 5.655c.69.79 7.393.526 8.313.263s.493-6.05.394-7.463a2.389 2.389 0 0 0-1.576-2.367zm.1 8.45c-.362 0-4.4.164-4.634-.066a19.561 19.561 0 0 1 0-4.8c.156-.313 4.732-.362 4.93-.066s.064 4.933-.3 4.933zm-24.81 5.556c.657-.165.36-1.02-.033-1.152s-1.773.23-3.58 1.414a7.921 7.921 0 0 0-3.22 3.616 3.421 3.421 0 0 0 .065 1.94s.69.066.986.066.4-2.006 1.61-3.42a9.778 9.778 0 0 1 4.174-2.465zm3.286.426a8.437 8.437 0 0 0-6.933 3.123c-2.136 2.563-2.1 8.35-1.282 10.88s4.9 4.374 6.473 4.735 7.59-.79 9.233-3.65 1.217-7.3.3-10.158-4.11-4.635-7.79-4.93zm6.473 14.367a10.343 10.343 0 0 1-7.23 3.025c-2.893-.131-5.454-1.545-5.026-4.833s1.873-4.47 3.32-5.852a9.892 9.892 0 0 1 5.29-2.5c1.9-.065 3.022-.13 3.876 1.94s1.278 6.708-.23 8.22z" transform="translate(27 21)"/></g></svg>